<svg width="297" height="82" viewBox="0 0 297 82" fill="none" xmlns="http://www.w3.org/2000/svg">
<g clip-path="url(#clip0_70_278)">
<path d="M58.75 15.42H15.3815C13.894 8.37855 9.7755 7.92505 9.4315 7.88705H6.294C5.809 6.67905 4.6375 5.61255 3.267 5.61255C1.462 5.61255 0 7.08855 0 8.91005C0 10.7305 1.4625 12.206 3.267 12.206C4.648 12.206 5.826 11.109 6.3035 9.88705H9.2305C9.347 9.90805 12.08 10.738 13.1085 16.507C14.4725 24.152 17.949 43.363 17.9685 43.361C17.9685 45.486 19.244 49.3876 24.0665 49.3876H42.5885L41.827 47.4195H24.0665C21.999 47.4195 21.101 45.938 20.705 44.8685C23.942 44.6545 32.8445 44.064 40.727 43.5015L40.7895 43.486L37.07 31.479C36.8943 30.912 36.888 30.306 37.052 29.7355C37.216 29.165 37.543 28.6548 37.993 28.2675C38.906 27.4845 40.2685 27.3205 41.337 27.864L59.043 36.8275C59.6683 37.1475 60.1637 37.6737 60.4455 38.3171L61.5715 38.0201C61.9885 37.1911 62.0755 36.561 62.082 36.4895L63.954 21.367C64.3615 18.0835 62.0305 15.42 58.75 15.42ZM31.486 26.525C31.5093 26.4614 31.5448 26.4031 31.5907 26.3532C31.6365 26.3034 31.6917 26.2631 31.7532 26.2346C31.8146 26.2061 31.8811 26.1901 31.9487 26.1873C32.0164 26.1846 32.0839 26.1952 32.1475 26.2185L35.5935 27.4825C35.862 27.58 36 27.8771 35.901 28.1446C35.8534 28.2727 35.757 28.3769 35.633 28.4344C35.5089 28.4919 35.3671 28.4981 35.2385 28.4515L31.7925 27.1875C31.7289 27.1642 31.6704 27.1285 31.6206 27.0826C31.5708 27.0366 31.5304 26.9813 31.502 26.9198C31.4735 26.8583 31.4575 26.7918 31.4547 26.724C31.452 26.6563 31.4626 26.5887 31.486 26.525ZM35.17 32.3841L31.8465 33.9485C31.7226 34.0064 31.5808 34.0129 31.4521 33.9666C31.3234 33.9204 31.2182 33.8251 31.1595 33.7015C31.1014 33.5777 31.0948 33.4359 31.1411 33.3072C31.1874 33.1785 31.2828 33.0735 31.4065 33.015L34.73 31.4506C34.7913 31.4217 34.8577 31.4051 34.9254 31.4019C34.9931 31.3987 35.0607 31.4088 35.1245 31.4317C35.1882 31.4546 35.2469 31.4899 35.297 31.5354C35.3472 31.581 35.3879 31.636 35.4168 31.6973C35.4456 31.7586 35.4622 31.825 35.4654 31.8927C35.4686 31.9603 35.4585 32.028 35.4356 32.0918C35.4127 32.1555 35.3774 32.2142 35.3319 32.2643C35.2863 32.3145 35.2313 32.3552 35.17 32.3841ZM37.5645 34.5565C37.832 34.653 37.9715 34.949 37.875 35.2165L36.622 38.695C36.5718 38.819 36.4755 38.9187 36.3534 38.9732C36.2313 39.0278 36.0928 39.0329 35.967 38.9876C35.8412 38.9423 35.7378 38.85 35.6785 38.7301C35.6192 38.6102 35.6086 38.4721 35.649 38.3446L36.904 34.8671C36.9507 34.7385 37.0464 34.6337 37.1702 34.5755C37.294 34.5174 37.4357 34.5105 37.5645 34.5565ZM38.7315 25.9746C38.607 26.0317 38.465 26.0373 38.3364 25.9902C38.2079 25.9431 38.1031 25.8471 38.045 25.723L36.494 22.371C36.4655 22.3096 36.4494 22.2432 36.4467 22.1756C36.4439 22.1079 36.4544 22.0404 36.4777 21.9768C36.501 21.9133 36.5366 21.8549 36.5825 21.8051C36.6284 21.7553 36.6836 21.715 36.745 21.6866C36.8064 21.6581 36.8729 21.642 36.9405 21.6392C37.0081 21.6364 37.0757 21.647 37.1392 21.6703C37.2028 21.6936 37.2611 21.7292 37.3109 21.775C37.3608 21.8209 37.401 21.8761 37.4295 21.9375L38.9815 25.2901C39.0102 25.3514 39.0265 25.4178 39.0295 25.4854C39.0324 25.5531 39.022 25.6207 38.9988 25.6843C38.9755 25.7479 38.94 25.8063 38.8941 25.8561C38.8482 25.9059 38.793 25.9462 38.7315 25.9746ZM44.167 22.674L42.915 26.151C42.892 26.215 42.8566 26.2738 42.8108 26.324C42.765 26.3743 42.7098 26.415 42.6482 26.4438C42.5867 26.4727 42.52 26.4891 42.4521 26.4921C42.3842 26.4952 42.3164 26.4848 42.2525 26.4615C42.1241 26.4147 42.0193 26.319 41.9612 26.1953C41.903 26.0715 41.8961 25.9298 41.942 25.8011L43.196 22.3245C43.2189 22.2609 43.2541 22.2023 43.2996 22.1523C43.3451 22.1022 43.4 22.0616 43.4612 22.0328C43.5224 22.0039 43.5886 21.9874 43.6562 21.9842C43.7238 21.981 43.7913 21.9912 43.855 22.014C44.125 22.1105 44.2635 22.406 44.167 22.674ZM49.0575 27.772L45.737 29.337C45.6757 29.366 45.6094 29.3827 45.5417 29.386C45.474 29.3894 45.4063 29.3793 45.3425 29.3565C45.2787 29.3337 45.22 29.2985 45.1697 29.253C45.1195 29.2075 45.0787 29.1526 45.0498 29.0913C45.0208 29.03 45.0041 28.9637 45.0008 28.896C44.9974 28.8283 45.0075 28.7606 45.0303 28.6968C45.0531 28.633 45.0883 28.5743 45.1338 28.524C45.1793 28.4738 45.2342 28.433 45.2955 28.404L48.6185 26.838C48.8755 26.7175 49.183 26.8275 49.305 27.085C49.427 27.3425 49.3165 27.65 49.0575 27.772Z" fill="#3B4652"/>
<path d="M53.873 42.1555L58.05 40.514C58.2366 40.4398 58.3978 40.3134 58.5143 40.1498C58.6308 39.9863 58.6975 39.7926 58.7065 39.592C58.7165 39.3915 58.6681 39.1924 58.5675 39.0188C58.4668 38.8452 58.318 38.7044 58.139 38.6135L40.4275 29.6475C40.2466 29.5554 40.0423 29.5192 39.8408 29.5435C39.6392 29.5678 39.4494 29.6515 39.2955 29.784C39.1411 29.9173 39.0289 30.0927 38.9727 30.2888C38.9165 30.4849 38.9187 30.6931 38.979 30.888L44.982 50.261C45.0418 50.4564 45.1583 50.6296 45.3166 50.7588C45.475 50.888 45.6681 50.9672 45.8715 50.9865C46.0748 51.0042 46.2787 50.9615 46.4578 50.8639C46.637 50.7662 46.7833 50.6179 46.8785 50.4375L49.2975 45.833L54.454 52.669C54.5498 52.7961 54.6736 52.8994 54.8158 52.9708C54.9581 53.0421 55.1149 53.0797 55.274 53.0805C55.4975 53.0805 55.7185 53.0065 55.899 52.8675L59.057 50.439C59.1664 50.3544 59.2578 50.249 59.3262 50.1289C59.3946 50.0087 59.4384 49.8762 59.4553 49.7391C59.4722 49.6019 59.4617 49.4627 59.4245 49.3296C59.3873 49.1965 59.3241 49.072 59.2385 48.9635L53.873 42.1555ZM49.6035 53.7295C47.2325 53.7295 45.3035 55.672 45.3035 58.0585C45.3035 60.445 47.231 62.3875 49.6035 62.3875C51.9735 62.3875 53.9035 60.445 53.9035 58.0585C53.9035 55.672 51.9735 53.7295 49.6035 53.7295ZM24.8505 53.7295C22.48 53.7295 20.5505 55.672 20.5505 58.0585C20.5505 60.445 22.4795 62.3875 24.8505 62.3875C27.2215 62.3875 29.1505 60.445 29.1505 58.0585C29.1505 55.672 27.2215 53.7295 24.8505 53.7295Z" fill="#2B79C2"/>
</g>
<path d="M103.211 50H83.8313V17.9653H102.801L102.254 24.416L92.8787 24.1427V30.32H100.259V36.716L92.8787 36.1693V43.44L103.211 43.1667V50ZM112.389 50.574C109.929 50.574 108.207 49.836 107.223 48.36C106.258 46.884 105.775 44.3876 105.775 40.8707V31.5773H103.889V27.778L107.114 26.7667L109.902 20.398H114.713V26.7667H119.195V31.5773H114.631V41.7453C114.631 43.2031 114.84 44.1689 115.259 44.6427C115.678 45.1164 116.325 45.3533 117.2 45.3533C117.583 45.3533 117.929 45.3078 118.239 45.2167C118.548 45.1256 118.804 44.998 119.004 44.834V48.5513C118.731 48.8247 118.375 49.098 117.938 49.3713C117.501 49.6264 116.772 49.8907 115.751 50.164C114.749 50.4373 113.628 50.574 112.389 50.574ZM130.082 50H121.226V19.086L119.586 18.102V15.56L128.36 14.1933H130.137V30.2927L130.465 29.8827C130.683 29.5911 131.002 29.2449 131.421 28.844C131.859 28.4431 132.341 28.0513 132.87 27.6687C133.398 27.2678 134.027 26.9307 134.756 26.6573C135.503 26.3658 136.232 26.22 136.943 26.22C139.439 26.22 141.197 26.9033 142.218 28.27C143.257 29.6367 143.776 31.9236 143.776 35.1307C143.776 35.24 143.776 35.404 143.776 35.6227C143.758 35.8413 143.749 36.0144 143.749 36.142V50H134.729V35.3493C134.783 33.6364 134.054 32.78 132.542 32.78C132.396 32.78 132.25 32.7891 132.105 32.8073C131.977 32.8256 131.84 32.8711 131.695 32.944C131.549 33.0169 131.43 33.0716 131.339 33.108C131.266 33.1444 131.148 33.2173 130.984 33.3267C130.838 33.436 130.738 33.5089 130.683 33.5453C130.647 33.5818 130.537 33.6729 130.355 33.8187C130.191 33.9644 130.1 34.0464 130.082 34.0647V50ZM155.982 50H147.153V32.3153L145.513 31.304V28.3793L151.39 26.7667H156.037V30.2927L156.365 29.8827C156.583 29.5911 156.902 29.2449 157.321 28.844C157.759 28.4431 158.242 28.0513 158.77 27.6687C159.299 27.2678 159.927 26.9307 160.656 26.6573C161.403 26.3658 162.132 26.22 162.843 26.22C165.339 26.22 167.098 26.9033 168.118 28.27C169.157 29.6367 169.676 31.9236 169.676 35.1307C169.676 35.24 169.676 35.404 169.676 35.6227C169.658 35.8413 169.649 36.0144 169.649 36.142V50H160.629V35.3493C160.683 33.6364 159.955 32.78 158.442 32.78C158.333 32.78 158.223 32.7891 158.114 32.8073C158.023 32.8256 157.932 32.8438 157.841 32.862C157.768 32.8802 157.677 32.9167 157.567 32.9713C157.476 33.0078 157.394 33.0442 157.321 33.0807C157.249 33.0989 157.167 33.1444 157.075 33.2173C156.984 33.272 156.911 33.3176 156.857 33.354C156.802 33.3904 156.72 33.4542 156.611 33.5453C156.52 33.6182 156.447 33.6729 156.392 33.7093C156.356 33.7458 156.283 33.8096 156.173 33.9007C156.082 33.9736 156.019 34.0282 155.982 34.0647V50ZM184.087 47.294C184.889 47.294 185.499 46.966 185.918 46.31C186.355 45.6358 186.574 44.7156 186.574 43.5493V34.912C186.574 31.3587 185.736 29.582 184.059 29.582C183.276 29.582 182.665 29.9009 182.228 30.5387C181.791 31.1764 181.572 32.0784 181.572 33.2447V42.128C181.572 45.572 182.41 47.294 184.087 47.294ZM183.868 50.574C179.695 50.574 176.643 49.6264 174.711 47.7313C172.78 45.8362 171.814 42.8113 171.814 38.6567C171.814 34.5384 172.789 31.4407 174.739 29.3633C176.689 27.2678 179.859 26.22 184.251 26.22C188.533 26.22 191.622 27.2222 193.517 29.2267C195.43 31.2129 196.387 34.2287 196.387 38.274C196.387 42.4651 195.375 45.5629 193.353 47.5673C191.348 49.5718 188.187 50.574 183.868 50.574Z" fill="#2B79C2"/>
<path d="M208.603 50.574C207.2 50.574 205.888 50.4464 204.667 50.1913C203.464 49.9544 202.453 49.6356 201.633 49.2347C200.813 48.8338 200.139 48.4511 199.61 48.0867C199.1 47.7222 198.672 47.3578 198.326 46.9933L199.009 40.3513C199.756 41.3536 200.758 42.2282 202.016 42.9753C203.273 43.7042 204.631 44.0687 206.088 44.0687C207.546 44.0687 208.594 43.9138 209.232 43.604C209.888 43.2942 210.216 42.7293 210.216 41.9093C210.216 41.0347 209.842 40.2876 209.095 39.668C208.366 39.0484 207.1 38.3013 205.296 37.4267C204.64 37.0987 204.084 36.8071 203.628 36.552C203.173 36.2787 202.562 35.8413 201.797 35.24C201.05 34.6204 200.44 33.9827 199.966 33.3267C199.492 32.6524 199.073 31.796 198.708 30.7573C198.344 29.7004 198.162 28.5707 198.162 27.368C198.162 20.8627 201.834 17.61 209.177 17.61C210.343 17.61 211.437 17.7376 212.457 17.9927C213.496 18.2296 214.307 18.4938 214.89 18.7853C215.473 19.0769 216.001 19.4231 216.475 19.824C216.967 20.2067 217.277 20.48 217.404 20.644C217.532 20.7898 217.623 20.9082 217.678 20.9993L216.311 26.2747C215.6 25.4364 214.708 24.8169 213.632 24.416C212.576 23.9969 211.564 23.7873 210.598 23.7873C208.266 23.7873 207.1 24.5162 207.1 25.974C207.1 26.3567 207.173 26.7029 207.318 27.0127C207.464 27.3224 207.701 27.6049 208.029 27.86C208.357 28.1151 208.658 28.3338 208.931 28.516C209.223 28.6982 209.614 28.926 210.106 29.1993C210.617 29.4544 210.999 29.664 211.254 29.828C213.915 30.9578 215.865 32.2971 217.104 33.846C218.361 35.3949 218.99 37.2809 218.99 39.504C218.99 43.112 218.097 45.8636 216.311 47.7587C214.544 49.6356 211.974 50.574 208.603 50.574ZM228.583 50.574C226.123 50.574 224.401 49.836 223.417 48.36C222.451 46.884 221.968 44.3876 221.968 40.8707V31.5773H220.082V27.778L223.307 26.7667L226.095 20.398H230.906V26.7667H235.389V31.5773H230.824V41.7453C230.824 43.2031 231.034 44.1689 231.453 44.6427C231.872 45.1164 232.519 45.3533 233.393 45.3533C233.776 45.3533 234.122 45.3078 234.432 45.2167C234.742 45.1256 234.997 44.998 235.197 44.834V48.5513C234.924 48.8247 234.569 49.098 234.131 49.3713C233.694 49.6264 232.965 49.8907 231.945 50.164C230.942 50.4373 229.822 50.574 228.583 50.574ZM249.009 59.4027C247.132 59.4027 245.364 59.1293 243.706 58.5827C242.048 58.036 240.836 57.298 240.071 56.3687L241.492 53.4167C242.549 54.018 244.225 54.3187 246.521 54.3187C247.25 54.3187 247.879 54.2367 248.407 54.0727C248.936 53.9087 249.409 53.6171 249.829 53.198C250.248 52.7971 250.567 52.2231 250.785 51.476C251.004 50.7289 251.122 49.8087 251.141 48.7153V46.3647L250.867 46.802C250.685 47.0936 250.403 47.4489 250.02 47.868C249.655 48.2689 249.236 48.6789 248.763 49.098C248.289 49.4989 247.706 49.8451 247.013 50.1367C246.339 50.4282 245.647 50.574 244.936 50.574C242.221 50.574 240.307 49.8178 239.196 48.3053C238.084 46.7747 237.529 44.2053 237.529 40.5973V30.894L236.545 29.91V26.7667H246.494V42.3193C246.494 43.1576 246.621 43.7771 246.877 44.178C247.15 44.5607 247.687 44.752 248.489 44.752C248.726 44.752 248.963 44.7156 249.2 44.6427C249.437 44.5516 249.665 44.4331 249.883 44.2873C250.12 44.1416 250.366 43.9593 250.621 43.7407V30.894L249.118 29.91V26.7667H259.532V46.802C259.532 50.8291 258.675 53.936 256.963 56.1227C255.25 58.3093 252.598 59.4027 249.009 59.4027ZM262.886 50V19.086L261.246 18.102V15.56L270.02 14.1933H271.797V50H262.886ZM287.711 35.8687C287.711 33.5544 287.593 31.9144 287.356 30.9487C287.119 29.9829 286.682 29.5 286.044 29.5C285.497 29.5 285.051 29.6002 284.705 29.8007C284.358 29.9829 284.103 30.2836 283.939 30.7027C283.775 31.1036 283.666 31.5227 283.611 31.96C283.575 32.3791 283.557 32.9167 283.557 33.5727V35.8687H287.711ZM285.525 50.574C283.484 50.574 281.707 50.2642 280.195 49.6447C278.7 49.0251 277.516 48.1596 276.641 47.048C275.785 45.9364 275.156 44.6882 274.755 43.3033C274.354 41.9002 274.154 40.3422 274.154 38.6293C274.154 34.5476 275.193 31.4589 277.27 29.3633C279.347 27.2678 282.254 26.22 285.989 26.22C289.579 26.22 292.148 27.0673 293.697 28.762C295.246 30.4384 296.021 33.1444 296.021 36.88V39.914H283.529V40.4333C283.529 41.5084 283.639 42.3922 283.857 43.0847C284.094 43.7771 284.431 44.2873 284.869 44.6153C285.306 44.9433 285.752 45.162 286.208 45.2713C286.664 45.3807 287.219 45.4353 287.875 45.4353C288.513 45.4353 289.196 45.3533 289.925 45.1893C290.672 45.0253 291.42 44.7702 292.167 44.424C292.932 44.0778 293.57 43.6678 294.08 43.194L295.693 45.9547C295.018 47.048 294.025 47.9682 292.713 48.7153C291.42 49.4442 290.171 49.9362 288.969 50.1913C287.766 50.4464 286.618 50.574 285.525 50.574Z" fill="#3B4652"/>
<defs>
<clipPath id="clip0_70_278">
<rect width="64" height="64" fill="white" transform="translate(0 2)"/>
</clipPath>
</defs>
</svg>
